<mxfile host="app.diagrams.net" agent="Mozilla/5.0 (Windows NT 10.0; Win64; x64) AppleWebKit/537.36 (KHTML, like Gecko) Chrome/136.0.0.0 YaBrowser/25.6.0.0 Safari/537.36" version="28.2.0" pages="2">
  <diagram name="Структура + Флоу" id="pwWmHO8ABWiAnnMKmBsZ">
    <mxGraphModel dx="1378" dy="772" grid="1" gridSize="10" guides="1" tooltips="1" connect="1" arrows="1" fold="1" page="1" pageScale="1" pageWidth="827" pageHeight="1169" math="0" shadow="0">
      <root>
        <mxCell id="0" />
        <mxCell id="1" parent="0" />
        <mxCell id="0Xw1-iP1CDzhg2oN8uOX-1" value="" style="rounded=1;whiteSpace=wrap;html=1;align=center;arcSize=12;" vertex="1" parent="1">
          <mxGeometry x="40" y="610" width="350" height="290" as="geometry" />
        </mxCell>
        <mxCell id="0Xw1-iP1CDzhg2oN8uOX-2" value="" style="rounded=1;whiteSpace=wrap;html=1;" vertex="1" parent="1">
          <mxGeometry x="50" y="670" width="120" height="220" as="geometry" />
        </mxCell>
        <mxCell id="0Xw1-iP1CDzhg2oN8uOX-3" value="" style="rounded=1;whiteSpace=wrap;html=1;" vertex="1" parent="1">
          <mxGeometry x="180" y="670" width="200" height="140" as="geometry" />
        </mxCell>
        <mxCell id="0Xw1-iP1CDzhg2oN8uOX-4" value="" style="rounded=1;whiteSpace=wrap;html=1;" vertex="1" parent="1">
          <mxGeometry x="180" y="820" width="200" height="70" as="geometry" />
        </mxCell>
        <mxCell id="0Xw1-iP1CDzhg2oN8uOX-8" value="Frontend" style="text;html=1;align=center;verticalAlign=middle;whiteSpace=wrap;rounded=0;strokeWidth=2;fontSize=22;" vertex="1" parent="1">
          <mxGeometry x="185" y="620" width="60" height="30" as="geometry" />
        </mxCell>
        <mxCell id="0Xw1-iP1CDzhg2oN8uOX-9" value="&lt;font style=&quot;font-size: 21px;&quot;&gt;&lt;b style=&quot;&quot;&gt;GET&lt;/b&gt; Users&lt;/font&gt;" style="text;html=1;align=center;verticalAlign=middle;whiteSpace=wrap;rounded=0;" vertex="1" parent="1">
          <mxGeometry x="80" y="765" width="60" height="30" as="geometry" />
        </mxCell>
        <mxCell id="0Xw1-iP1CDzhg2oN8uOX-10" value="&lt;b&gt;GET&lt;/b&gt; Messenges" style="text;html=1;align=center;verticalAlign=middle;whiteSpace=wrap;rounded=0;fontSize=22;" vertex="1" parent="1">
          <mxGeometry x="250" y="725" width="60" height="30" as="geometry" />
        </mxCell>
        <mxCell id="0Xw1-iP1CDzhg2oN8uOX-11" value="User" style="shape=umlActor;verticalLabelPosition=bottom;verticalAlign=top;html=1;outlineConnect=0;" vertex="1" parent="1">
          <mxGeometry x="750" y="735" width="30" height="60" as="geometry" />
        </mxCell>
        <mxCell id="0Xw1-iP1CDzhg2oN8uOX-12" value="&lt;font style=&quot;font-size: 20px;&quot;&gt;&lt;b style=&quot;&quot;&gt;POST&lt;/b&gt; Message&lt;/font&gt;" style="text;html=1;align=center;verticalAlign=middle;whiteSpace=wrap;rounded=0;" vertex="1" parent="1">
          <mxGeometry x="250" y="840" width="60" height="30" as="geometry" />
        </mxCell>
        <mxCell id="0Xw1-iP1CDzhg2oN8uOX-13" value="" style="rounded=1;whiteSpace=wrap;html=1;" vertex="1" parent="1">
          <mxGeometry x="530" y="780" width="120" height="110" as="geometry" />
        </mxCell>
        <mxCell id="0Xw1-iP1CDzhg2oN8uOX-15" value="" style="endArrow=classic;html=1;rounded=0;exitX=0;exitY=0.75;exitDx=0;exitDy=0;entryX=0.558;entryY=1.009;entryDx=0;entryDy=0;entryPerimeter=0;" edge="1" parent="1" source="0Xw1-iP1CDzhg2oN8uOX-13" target="0Xw1-iP1CDzhg2oN8uOX-13">
          <mxGeometry width="50" height="50" relative="1" as="geometry">
            <mxPoint x="390" y="700" as="sourcePoint" />
            <mxPoint x="680" y="920" as="targetPoint" />
            <Array as="points">
              <mxPoint x="480" y="863" />
              <mxPoint x="480" y="920" />
              <mxPoint x="600" y="920" />
            </Array>
          </mxGeometry>
        </mxCell>
        <mxCell id="0Xw1-iP1CDzhg2oN8uOX-16" value="&lt;font style=&quot;font-size: 20px;&quot;&gt;Стартовая&lt;/font&gt;&lt;div&gt;&lt;font style=&quot;font-size: 20px;&quot;&gt;страница&lt;/font&gt;&lt;/div&gt;" style="text;html=1;align=center;verticalAlign=middle;whiteSpace=wrap;rounded=0;" vertex="1" parent="1">
          <mxGeometry x="520" y="820" width="140" height="30" as="geometry" />
        </mxCell>
        <mxCell id="0Xw1-iP1CDzhg2oN8uOX-17" value="&lt;font&gt;Регистрация&lt;/font&gt;" style="text;html=1;align=center;verticalAlign=middle;whiteSpace=wrap;rounded=0;fontSize=16;" vertex="1" parent="1">
          <mxGeometry x="510" y="920" width="60" height="30" as="geometry" />
        </mxCell>
        <mxCell id="0Xw1-iP1CDzhg2oN8uOX-21" value="" style="endArrow=classic;html=1;rounded=0;exitX=0;exitY=0.25;exitDx=0;exitDy=0;entryX=1;entryY=0.5;entryDx=0;entryDy=0;" edge="1" parent="1" source="0Xw1-iP1CDzhg2oN8uOX-13" target="0Xw1-iP1CDzhg2oN8uOX-1">
          <mxGeometry width="50" height="50" relative="1" as="geometry">
            <mxPoint x="390" y="700" as="sourcePoint" />
            <mxPoint x="440" y="650" as="targetPoint" />
          </mxGeometry>
        </mxCell>
        <mxCell id="0Xw1-iP1CDzhg2oN8uOX-22" value="" style="endArrow=classic;html=1;rounded=0;entryX=1;entryY=0.5;entryDx=0;entryDy=0;" edge="1" parent="1" target="0Xw1-iP1CDzhg2oN8uOX-1">
          <mxGeometry width="50" height="50" relative="1" as="geometry">
            <mxPoint x="750" y="755" as="sourcePoint" />
            <mxPoint x="440" y="650" as="targetPoint" />
          </mxGeometry>
        </mxCell>
        <mxCell id="0Xw1-iP1CDzhg2oN8uOX-23" value="Аутентификация" style="text;html=1;align=center;verticalAlign=middle;whiteSpace=wrap;rounded=0;fontSize=16;" vertex="1" parent="1">
          <mxGeometry x="570" y="725" width="60" height="30" as="geometry" />
        </mxCell>
        <mxCell id="0Xw1-iP1CDzhg2oN8uOX-24" value="&lt;font style=&quot;font-size: 16px;&quot;&gt;Вход&lt;/font&gt;" style="text;html=1;align=center;verticalAlign=middle;whiteSpace=wrap;rounded=0;" vertex="1" parent="1">
          <mxGeometry x="470" y="765" width="60" height="30" as="geometry" />
        </mxCell>
        <mxCell id="0Xw1-iP1CDzhg2oN8uOX-25" value="" style="endArrow=classic;html=1;rounded=0;entryX=0;entryY=0.5;entryDx=0;entryDy=0;exitX=1;exitY=0.779;exitDx=0;exitDy=0;exitPerimeter=0;" edge="1" parent="1" source="0Xw1-iP1CDzhg2oN8uOX-1" target="0Xw1-iP1CDzhg2oN8uOX-13">
          <mxGeometry width="50" height="50" relative="1" as="geometry">
            <mxPoint x="390" y="840" as="sourcePoint" />
            <mxPoint x="440" y="790" as="targetPoint" />
          </mxGeometry>
        </mxCell>
        <mxCell id="0Xw1-iP1CDzhg2oN8uOX-26" value="&lt;font style=&quot;font-size: 16px;&quot;&gt;Выход&lt;/font&gt;" style="text;html=1;align=center;verticalAlign=middle;whiteSpace=wrap;rounded=0;" vertex="1" parent="1">
          <mxGeometry x="430" y="810" width="60" height="30" as="geometry" />
        </mxCell>
        <mxCell id="0Xw1-iP1CDzhg2oN8uOX-27" value="" style="endArrow=classic;html=1;rounded=0;exitX=0;exitY=0.3333333333333333;exitDx=0;exitDy=0;exitPerimeter=0;entryX=1;entryY=0.5;entryDx=0;entryDy=0;" edge="1" parent="1" source="0Xw1-iP1CDzhg2oN8uOX-11" target="0Xw1-iP1CDzhg2oN8uOX-16">
          <mxGeometry width="50" height="50" relative="1" as="geometry">
            <mxPoint x="390" y="580" as="sourcePoint" />
            <mxPoint x="440" y="530" as="targetPoint" />
          </mxGeometry>
        </mxCell>
        <mxCell id="0Xw1-iP1CDzhg2oN8uOX-28" value="" style="rounded=1;whiteSpace=wrap;html=1;" vertex="1" parent="1">
          <mxGeometry x="40" y="170" width="360" height="150" as="geometry" />
        </mxCell>
        <mxCell id="0Xw1-iP1CDzhg2oN8uOX-29" value="&lt;font style=&quot;font-size: 22px;&quot;&gt;Backend&lt;/font&gt;" style="text;html=1;align=center;verticalAlign=middle;whiteSpace=wrap;rounded=0;" vertex="1" parent="1">
          <mxGeometry x="185" y="180" width="60" height="30" as="geometry" />
        </mxCell>
        <mxCell id="0Xw1-iP1CDzhg2oN8uOX-30" value="" style="endArrow=classic;startArrow=classic;html=1;rounded=0;exitX=0.25;exitY=0;exitDx=0;exitDy=0;entryX=0.25;entryY=1;entryDx=0;entryDy=0;" edge="1" parent="1" source="0Xw1-iP1CDzhg2oN8uOX-1" target="0Xw1-iP1CDzhg2oN8uOX-28">
          <mxGeometry width="50" height="50" relative="1" as="geometry">
            <mxPoint x="390" y="580" as="sourcePoint" />
            <mxPoint x="440" y="530" as="targetPoint" />
            <Array as="points" />
          </mxGeometry>
        </mxCell>
        <mxCell id="0Xw1-iP1CDzhg2oN8uOX-31" value="Получить список контактов, добавить человека в список контактов" style="text;html=1;align=center;verticalAlign=middle;whiteSpace=wrap;rounded=0;fontSize=16;" vertex="1" parent="1">
          <mxGeometry x="135" y="330" width="520" height="30" as="geometry" />
        </mxCell>
        <mxCell id="0Xw1-iP1CDzhg2oN8uOX-32" value="Увидеть сообщения в диалоге с выбранным юзером" style="text;html=1;align=center;verticalAlign=middle;whiteSpace=wrap;rounded=0;fontSize=16;" vertex="1" parent="1">
          <mxGeometry x="144" y="390" width="397" height="30" as="geometry" />
        </mxCell>
        <mxCell id="0Xw1-iP1CDzhg2oN8uOX-33" value="Найти в поиске нужный контакт/нужного человека не в контактах" style="text;html=1;align=center;verticalAlign=middle;whiteSpace=wrap;rounded=0;fontSize=16;" vertex="1" parent="1">
          <mxGeometry x="140" y="360" width="498" height="30" as="geometry" />
        </mxCell>
        <mxCell id="0Xw1-iP1CDzhg2oN8uOX-34" value="Отправить сообщение выбранному юзеру" style="text;html=1;align=center;verticalAlign=middle;whiteSpace=wrap;rounded=0;fontSize=16;" vertex="1" parent="1">
          <mxGeometry x="144" y="420" width="320" height="30" as="geometry" />
        </mxCell>
        <mxCell id="0Xw1-iP1CDzhg2oN8uOX-35" value="" style="rounded=1;whiteSpace=wrap;html=1;" vertex="1" parent="1">
          <mxGeometry x="570" y="170" width="240" height="150" as="geometry" />
        </mxCell>
        <mxCell id="0Xw1-iP1CDzhg2oN8uOX-36" value="" style="endArrow=classic;startArrow=classic;html=1;rounded=0;entryX=0;entryY=0.5;entryDx=0;entryDy=0;exitX=1;exitY=0.5;exitDx=0;exitDy=0;" edge="1" parent="1" source="0Xw1-iP1CDzhg2oN8uOX-28" target="0Xw1-iP1CDzhg2oN8uOX-35">
          <mxGeometry width="50" height="50" relative="1" as="geometry">
            <mxPoint x="400" y="260" as="sourcePoint" />
            <mxPoint x="450" y="210" as="targetPoint" />
          </mxGeometry>
        </mxCell>
        <mxCell id="0Xw1-iP1CDzhg2oN8uOX-37" value="&lt;font style=&quot;font-size: 18px;&quot;&gt;БД&lt;/font&gt;" style="text;html=1;align=center;verticalAlign=middle;whiteSpace=wrap;rounded=0;" vertex="1" parent="1">
          <mxGeometry x="660" y="180" width="60" height="30" as="geometry" />
        </mxCell>
        <mxCell id="0Xw1-iP1CDzhg2oN8uOX-38" value="" style="rounded=1;whiteSpace=wrap;html=1;" vertex="1" parent="1">
          <mxGeometry x="1060" y="170" width="130" height="150" as="geometry" />
        </mxCell>
        <mxCell id="0Xw1-iP1CDzhg2oN8uOX-39" value="&lt;font style=&quot;font-size: 16px;&quot;&gt;Сервер с данными&lt;/font&gt;" style="text;html=1;align=center;verticalAlign=middle;whiteSpace=wrap;rounded=0;" vertex="1" parent="1">
          <mxGeometry x="1085" y="180" width="80" height="30" as="geometry" />
        </mxCell>
        <mxCell id="0Xw1-iP1CDzhg2oN8uOX-40" value="" style="endArrow=classic;startArrow=classic;html=1;rounded=0;exitX=1;exitY=0.5;exitDx=0;exitDy=0;entryX=0;entryY=0.5;entryDx=0;entryDy=0;" edge="1" parent="1" source="0Xw1-iP1CDzhg2oN8uOX-35" target="0Xw1-iP1CDzhg2oN8uOX-38">
          <mxGeometry width="50" height="50" relative="1" as="geometry">
            <mxPoint x="940" y="440" as="sourcePoint" />
            <mxPoint x="990" y="390" as="targetPoint" />
          </mxGeometry>
        </mxCell>
      </root>
    </mxGraphModel>
  </diagram>
  <diagram id="9c3Z3mIKZaXGdQKgjx_O" name="Сценарии использования">
    <mxGraphModel dx="1378" dy="772" grid="1" gridSize="10" guides="1" tooltips="1" connect="1" arrows="1" fold="1" page="1" pageScale="1" pageWidth="827" pageHeight="1169" math="0" shadow="0">
      <root>
        <mxCell id="0" />
        <mxCell id="1" parent="0" />
        <mxCell id="aeVO5vwJQsbvG0us7Sa9-1" value="Зарегистрированный&lt;div&gt;пользователь&lt;/div&gt;" style="shape=umlActor;verticalLabelPosition=bottom;verticalAlign=top;html=1;outlineConnect=0;" vertex="1" parent="1">
          <mxGeometry x="60" y="410" width="30" height="60" as="geometry" />
        </mxCell>
        <mxCell id="aeVO5vwJQsbvG0us7Sa9-2" value="Незарегистрированный&lt;div&gt;пользователь&lt;/div&gt;" style="shape=umlActor;verticalLabelPosition=bottom;verticalAlign=top;html=1;outlineConnect=0;" vertex="1" parent="1">
          <mxGeometry x="60" y="540" width="30" height="60" as="geometry" />
        </mxCell>
        <mxCell id="aeVO5vwJQsbvG0us7Sa9-3" value="Зарегистрироваться" style="ellipse;whiteSpace=wrap;html=1;" vertex="1" parent="1">
          <mxGeometry x="210" y="540" width="130" height="80" as="geometry" />
        </mxCell>
        <mxCell id="aeVO5vwJQsbvG0us7Sa9-4" value="Войти" style="ellipse;whiteSpace=wrap;html=1;" vertex="1" parent="1">
          <mxGeometry x="210" y="410" width="130" height="80" as="geometry" />
        </mxCell>
        <mxCell id="aeVO5vwJQsbvG0us7Sa9-6" value="Выйти&lt;span style=&quot;color: rgba(0, 0, 0, 0); font-family: monospace; font-size: 0px; text-align: start; text-wrap-mode: nowrap;&quot;&gt;%3CmxGraphModel%3E%3Croot%3E%3CmxCell%20id%3D%220%22%2F%3E%3CmxCell%20id%3D%221%22%20parent%3D%220%22%2F%3E%3CmxCell%20id%3D%222%22%20value%3D%22%D0%92%D0%BE%D0%B9%D1%82%D0%B8%22%20style%3D%22ellipse%3BwhiteSpace%3Dwrap%3Bhtml%3D1%3B%22%20vertex%3D%221%22%20parent%3D%221%22%3E%3CmxGeometry%20x%3D%22210%22%20y%3D%22410%22%20width%3D%22130%22%20height%3D%2280%22%20as%3D%22geometry%22%2F%3E%3C%2FmxCell%3E%3C%2Froot%3E%3C%2FmxGraphModel%3E&lt;/span&gt;" style="ellipse;whiteSpace=wrap;html=1;" vertex="1" parent="1">
          <mxGeometry x="414" y="305" width="130" height="80" as="geometry" />
        </mxCell>
        <mxCell id="aeVO5vwJQsbvG0us7Sa9-7" value="Поставить аватарку" style="ellipse;whiteSpace=wrap;html=1;" vertex="1" parent="1">
          <mxGeometry x="414" y="405" width="130" height="80" as="geometry" />
        </mxCell>
        <mxCell id="aeVO5vwJQsbvG0us7Sa9-8" value="Посмотреть&lt;div&gt;список контактов&lt;/div&gt;" style="ellipse;whiteSpace=wrap;html=1;" vertex="1" parent="1">
          <mxGeometry x="414" y="505" width="130" height="80" as="geometry" />
        </mxCell>
        <mxCell id="aeVO5vwJQsbvG0us7Sa9-9" value="" style="endArrow=classic;html=1;rounded=0;entryX=0;entryY=0.5;entryDx=0;entryDy=0;" edge="1" parent="1" target="aeVO5vwJQsbvG0us7Sa9-4">
          <mxGeometry width="50" height="50" relative="1" as="geometry">
            <mxPoint x="90" y="430" as="sourcePoint" />
            <mxPoint x="140" y="380" as="targetPoint" />
          </mxGeometry>
        </mxCell>
        <mxCell id="aeVO5vwJQsbvG0us7Sa9-10" value="" style="endArrow=classic;html=1;rounded=0;entryX=0;entryY=0.5;entryDx=0;entryDy=0;" edge="1" parent="1" target="aeVO5vwJQsbvG0us7Sa9-3">
          <mxGeometry width="50" height="50" relative="1" as="geometry">
            <mxPoint x="90" y="560" as="sourcePoint" />
            <mxPoint x="140" y="510" as="targetPoint" />
          </mxGeometry>
        </mxCell>
        <mxCell id="aeVO5vwJQsbvG0us7Sa9-11" value="" style="endArrow=classic;html=1;rounded=0;entryX=0;entryY=0.5;entryDx=0;entryDy=0;" edge="1" parent="1" target="aeVO5vwJQsbvG0us7Sa9-6">
          <mxGeometry width="50" height="50" relative="1" as="geometry">
            <mxPoint x="340" y="450" as="sourcePoint" />
            <mxPoint x="390" y="400" as="targetPoint" />
          </mxGeometry>
        </mxCell>
        <mxCell id="aeVO5vwJQsbvG0us7Sa9-12" value="" style="endArrow=classic;html=1;rounded=0;exitX=1;exitY=0.5;exitDx=0;exitDy=0;entryX=0;entryY=0.5;entryDx=0;entryDy=0;" edge="1" parent="1" source="aeVO5vwJQsbvG0us7Sa9-4" target="aeVO5vwJQsbvG0us7Sa9-7">
          <mxGeometry width="50" height="50" relative="1" as="geometry">
            <mxPoint x="390" y="370" as="sourcePoint" />
            <mxPoint x="440" y="320" as="targetPoint" />
          </mxGeometry>
        </mxCell>
        <mxCell id="aeVO5vwJQsbvG0us7Sa9-13" value="" style="endArrow=classic;html=1;rounded=0;entryX=0;entryY=0.5;entryDx=0;entryDy=0;" edge="1" parent="1" target="aeVO5vwJQsbvG0us7Sa9-8">
          <mxGeometry width="50" height="50" relative="1" as="geometry">
            <mxPoint x="340" y="450" as="sourcePoint" />
            <mxPoint x="440" y="320" as="targetPoint" />
          </mxGeometry>
        </mxCell>
        <mxCell id="aeVO5vwJQsbvG0us7Sa9-15" value="Добавить человека в контакты" style="ellipse;whiteSpace=wrap;html=1;" vertex="1" parent="1">
          <mxGeometry x="610" y="505" width="130" height="80" as="geometry" />
        </mxCell>
        <mxCell id="aeVO5vwJQsbvG0us7Sa9-16" value="Выбрать человека&lt;div&gt;&amp;nbsp;из контактов или&lt;div&gt;не из контактов&lt;/div&gt;&lt;/div&gt;" style="ellipse;whiteSpace=wrap;html=1;" vertex="1" parent="1">
          <mxGeometry x="610" y="605" width="130" height="80" as="geometry" />
        </mxCell>
        <mxCell id="aeVO5vwJQsbvG0us7Sa9-17" value="" style="endArrow=classic;html=1;rounded=0;exitX=0;exitY=0.5;exitDx=0;exitDy=0;entryX=1;entryY=0.5;entryDx=0;entryDy=0;" edge="1" parent="1" source="aeVO5vwJQsbvG0us7Sa9-15" target="aeVO5vwJQsbvG0us7Sa9-8">
          <mxGeometry width="50" height="50" relative="1" as="geometry">
            <mxPoint x="390" y="370" as="sourcePoint" />
            <mxPoint x="440" y="320" as="targetPoint" />
          </mxGeometry>
        </mxCell>
        <mxCell id="aeVO5vwJQsbvG0us7Sa9-18" value="" style="endArrow=classic;html=1;rounded=0;exitX=0;exitY=0.5;exitDx=0;exitDy=0;entryX=1;entryY=0.5;entryDx=0;entryDy=0;" edge="1" parent="1" source="aeVO5vwJQsbvG0us7Sa9-16" target="aeVO5vwJQsbvG0us7Sa9-8">
          <mxGeometry width="50" height="50" relative="1" as="geometry">
            <mxPoint x="390" y="370" as="sourcePoint" />
            <mxPoint x="550" y="540" as="targetPoint" />
          </mxGeometry>
        </mxCell>
        <mxCell id="aeVO5vwJQsbvG0us7Sa9-19" value="" style="endArrow=classic;html=1;rounded=0;entryX=0;entryY=0.5;entryDx=0;entryDy=0;" edge="1" parent="1" target="aeVO5vwJQsbvG0us7Sa9-20">
          <mxGeometry width="50" height="50" relative="1" as="geometry">
            <mxPoint x="544" y="550" as="sourcePoint" />
            <mxPoint x="594" y="500" as="targetPoint" />
          </mxGeometry>
        </mxCell>
        <mxCell id="aeVO5vwJQsbvG0us7Sa9-20" value="Посмотреть диалог&lt;div&gt;&amp;nbsp;с выбранным человеком&lt;/div&gt;" style="ellipse;whiteSpace=wrap;html=1;" vertex="1" parent="1">
          <mxGeometry x="610" y="405" width="130" height="80" as="geometry" />
        </mxCell>
        <mxCell id="aeVO5vwJQsbvG0us7Sa9-21" value="Отправить сообщение" style="ellipse;whiteSpace=wrap;html=1;" vertex="1" parent="1">
          <mxGeometry x="870" y="405" width="130" height="80" as="geometry" />
        </mxCell>
        <mxCell id="aeVO5vwJQsbvG0us7Sa9-22" value="Редактировать сообщение" style="ellipse;whiteSpace=wrap;html=1;" vertex="1" parent="1">
          <mxGeometry x="1130" y="405" width="130" height="80" as="geometry" />
        </mxCell>
        <mxCell id="aeVO5vwJQsbvG0us7Sa9-24" value="Изменить сообщение" style="ellipse;whiteSpace=wrap;html=1;" vertex="1" parent="1">
          <mxGeometry x="1300" y="305" width="130" height="80" as="geometry" />
        </mxCell>
        <mxCell id="aeVO5vwJQsbvG0us7Sa9-25" value="Удалить сообщение" style="ellipse;whiteSpace=wrap;html=1;" vertex="1" parent="1">
          <mxGeometry x="1300" y="405" width="130" height="80" as="geometry" />
        </mxCell>
        <mxCell id="aeVO5vwJQsbvG0us7Sa9-26" value="" style="endArrow=classic;html=1;rounded=0;entryX=0;entryY=0.5;entryDx=0;entryDy=0;exitX=1;exitY=0.5;exitDx=0;exitDy=0;" edge="1" parent="1" source="aeVO5vwJQsbvG0us7Sa9-20" target="aeVO5vwJQsbvG0us7Sa9-21">
          <mxGeometry width="50" height="50" relative="1" as="geometry">
            <mxPoint x="970" y="440" as="sourcePoint" />
            <mxPoint x="1020" y="390" as="targetPoint" />
          </mxGeometry>
        </mxCell>
        <mxCell id="aeVO5vwJQsbvG0us7Sa9-27" value="" style="endArrow=classic;html=1;rounded=0;exitX=1;exitY=0.5;exitDx=0;exitDy=0;entryX=0;entryY=0.5;entryDx=0;entryDy=0;" edge="1" parent="1" source="aeVO5vwJQsbvG0us7Sa9-21" target="aeVO5vwJQsbvG0us7Sa9-22">
          <mxGeometry width="50" height="50" relative="1" as="geometry">
            <mxPoint x="1030" y="440" as="sourcePoint" />
            <mxPoint x="1080" y="390" as="targetPoint" />
          </mxGeometry>
        </mxCell>
        <mxCell id="aeVO5vwJQsbvG0us7Sa9-28" value="" style="endArrow=classic;html=1;rounded=0;entryX=1;entryY=0.5;entryDx=0;entryDy=0;exitX=0;exitY=0.5;exitDx=0;exitDy=0;" edge="1" parent="1" source="aeVO5vwJQsbvG0us7Sa9-24" target="aeVO5vwJQsbvG0us7Sa9-22">
          <mxGeometry width="50" height="50" relative="1" as="geometry">
            <mxPoint x="970" y="440" as="sourcePoint" />
            <mxPoint x="1020" y="390" as="targetPoint" />
          </mxGeometry>
        </mxCell>
        <mxCell id="aeVO5vwJQsbvG0us7Sa9-29" value="" style="endArrow=classic;html=1;rounded=0;exitX=0;exitY=0.5;exitDx=0;exitDy=0;entryX=1;entryY=0.5;entryDx=0;entryDy=0;" edge="1" parent="1" source="aeVO5vwJQsbvG0us7Sa9-25" target="aeVO5vwJQsbvG0us7Sa9-22">
          <mxGeometry width="50" height="50" relative="1" as="geometry">
            <mxPoint x="970" y="440" as="sourcePoint" />
            <mxPoint x="1020" y="390" as="targetPoint" />
          </mxGeometry>
        </mxCell>
        <mxCell id="aeVO5vwJQsbvG0us7Sa9-30" value="расширяется" style="text;html=1;align=center;verticalAlign=middle;whiteSpace=wrap;rounded=0;" vertex="1" parent="1">
          <mxGeometry x="340" y="305" width="70" height="30" as="geometry" />
        </mxCell>
        <mxCell id="aeVO5vwJQsbvG0us7Sa9-31" value="расширяется" style="text;html=1;align=center;verticalAlign=middle;whiteSpace=wrap;rounded=0;" vertex="1" parent="1">
          <mxGeometry x="544" y="405" width="70" height="30" as="geometry" />
        </mxCell>
        <mxCell id="aeVO5vwJQsbvG0us7Sa9-32" value="расширяется" style="text;html=1;align=center;verticalAlign=middle;whiteSpace=wrap;rounded=0;" vertex="1" parent="1">
          <mxGeometry x="780" y="410" width="70" height="30" as="geometry" />
        </mxCell>
        <mxCell id="aeVO5vwJQsbvG0us7Sa9-33" value="расширяется" style="text;html=1;align=center;verticalAlign=middle;whiteSpace=wrap;rounded=0;" vertex="1" parent="1">
          <mxGeometry x="1030" y="410" width="70" height="30" as="geometry" />
        </mxCell>
        <mxCell id="aeVO5vwJQsbvG0us7Sa9-34" value="включает" style="text;html=1;align=center;verticalAlign=middle;whiteSpace=wrap;rounded=0;" vertex="1" parent="1">
          <mxGeometry x="530" y="605" width="60" height="30" as="geometry" />
        </mxCell>
        <mxCell id="aeVO5vwJQsbvG0us7Sa9-35" value="включает" style="text;html=1;align=center;verticalAlign=middle;whiteSpace=wrap;rounded=0;" vertex="1" parent="1">
          <mxGeometry x="1250" y="460" width="60" height="30" as="geometry" />
        </mxCell>
        <mxCell id="aeVO5vwJQsbvG0us7Sa9-36" value="включает" style="text;html=1;align=center;verticalAlign=middle;whiteSpace=wrap;rounded=0;" vertex="1" parent="1">
          <mxGeometry x="1230" y="355" width="60" height="30" as="geometry" />
        </mxCell>
        <mxCell id="aeVO5vwJQsbvG0us7Sa9-40" value="включает" style="text;html=1;align=center;verticalAlign=middle;whiteSpace=wrap;rounded=0;" vertex="1" parent="1">
          <mxGeometry x="560" y="550" width="60" height="30" as="geometry" />
        </mxCell>
        <mxCell id="aeVO5vwJQsbvG0us7Sa9-41" value="расширяется" style="text;html=1;align=center;verticalAlign=middle;whiteSpace=wrap;rounded=0;" vertex="1" parent="1">
          <mxGeometry x="379" y="475" width="70" height="30" as="geometry" />
        </mxCell>
      </root>
    </mxGraphModel>
  </diagram>
</mxfile>
